# xmcd
#
# Track frame offsets: 
#        150
#        20810
#        34427
#        58445
#        71609
#        86907
#        102305
#        115384
#        132018
#        145454
#        160615
#        173555
#        187246
#        200051
#        213088
#        226003
#        238919
#        251754
#        265330
#        279241
#        289327
#        301032
#        312107
#        325325
#        336994
#
# Disc length: 4645 seconds
#
# Revision: 0
# Processed by: cddbd v1.5.2PL0 Copyright (c) Steve Scherf et al.
# Submitted via: ExactAudioCopy v1.3
#
DISCID=85122319
DTITLE=Forrest City Joe and Polka Dot Slim - Downhome Delta Harmonica
DYEAR=1995
DGENRE=Blues
TTITLE0=Forrest City Joe - Train Time
TTITLE1=Forrest City Joe - You Better Cut That Out
TTITLE2=Forrest City Joe - Levee Camp Reminiscence
TTITLE3=Forrest City Joe - Drink On Little Girl
TTITLE4=Forrest City Joe - She Lived Her Life Too Fast
TTITLE5=Forrest City Joe - She Don't Love Me That Way
TTITLE6=Forrest City Joe - Stop Breaking Down
TTITLE7=Forrest City Joe - Red Cross Stone
TTITLE8=Forrest City Joe - Forrest City Jump
TTITLE9=Forrest City Joe - Memory Of Sonny Boy
TTITLE10=Forrest City Joe - Special Delivery Man
TTITLE11=Forrest City Joe - Shady Lane Woman
TTITLE12=Forrest City Joe - A Woamn On Every Street
TTITLE13=Forrest City Joe - Sawdust Bottom
TTITLE14=Forrest City Joe - Ash Street Boogie
TTITLE15=Forrest City Joe - Mwan Mistreating Woman
TTITLE16=Forrest City Joe - Lonesome Day Blues
TTITLE17=Polka Dot Slim - It's A Thing You Gotta Face
TTITLE18=Polka Dot Slim - Ain't Broke, Ain't Hungry
TTITLE19=Polka Dot Slim - Hello Friends, Hello Pals
TTITLE20=Polka Dot Slim - Sunny Side Of Love
TTITLE21=Polka Dot Slim - Hey Mattie
TTITLE22=Polka Dot Slim - Change Your Ways
TTITLE23=Polka Dot Slim - They Call Me Mr. Calhoun
TTITLE24=Polka Dot Slim - I'm Ragged And Dirty
EXTD=
EXTT0=
EXTT1=
EXTT2=
EXTT3=
EXTT4=
EXTT5=
EXTT6=
EXTT7=
EXTT8=
EXTT9=
EXTT10=
EXTT11=
EXTT12=
EXTT13=
EXTT14=
EXTT15=
EXTT16=
EXTT17=
EXTT18=
EXTT19=
EXTT20=
EXTT21=
EXTT22=
EXTT23=
EXTT24=
PLAYORDER=
